<?xml version="1.0" encoding="UTF-8" standalone="no"?>
<!DOCTYPE svg PUBLIC "-//W3C//DTD SVG 1.1//EN"
 "http://www.w3.org/Graphics/SVG/1.1/DTD/svg11.dtd">
<!-- Generated by graphviz version 2.40.1 (20161225.0304)
 -->
<!-- Title: G Pages: 1 -->
<svg width="3271pt" height="397pt"
 viewBox="0.00 0.00 3271.20 397.20" xmlns="http://www.w3.org/2000/svg" xmlns:xlink="http://www.w3.org/1999/xlink">
<g id="graph0" class="graph" transform="scale(1 1) rotate(0) translate(21.6 375.6)">
<title>G</title>
<polygon fill="#111111" stroke="transparent" points="-21.6,21.6 -21.6,-375.6 3249.6,-375.6 3249.6,21.6 -21.6,21.6"/>
<!-- app/components/button/Button.jsx -->
<g id="node1" class="node">
<title>app/components/button/Button.jsx</title>
<path fill="none" stroke="#cfffac" d="M1206.3333,-251C1206.3333,-251 958.6667,-251 958.6667,-251 954.8333,-251 951,-247.1667 951,-243.3333 951,-243.3333 951,-235.6667 951,-235.6667 951,-231.8333 954.8333,-228 958.6667,-228 958.6667,-228 1206.3333,-228 1206.3333,-228 1210.1667,-228 1214,-231.8333 1214,-235.6667 1214,-235.6667 1214,-243.3333 1214,-243.3333 1214,-247.1667 1210.1667,-251 1206.3333,-251"/>
<text text-anchor="middle" x="1082.5" y="-235.8" font-family="Arial" font-size="14.00" fill="#cfffac">app/components/button/Button.jsx</text>
</g>
<!-- app/components/index.js -->
<g id="node2" class="node">
<title>app/components/index.js</title>
<path fill="none" stroke="#c6c5fe" d="M1172.8333,-210C1172.8333,-210 992.1667,-210 992.1667,-210 988.3333,-210 984.5,-206.1667 984.5,-202.3333 984.5,-202.3333 984.5,-194.6667 984.5,-194.6667 984.5,-190.8333 988.3333,-187 992.1667,-187 992.1667,-187 1172.8333,-187 1172.8333,-187 1176.6667,-187 1180.5,-190.8333 1180.5,-194.6667 1180.5,-194.6667 1180.5,-202.3333 1180.5,-202.3333 1180.5,-206.1667 1176.6667,-210 1172.8333,-210"/>
<text text-anchor="middle" x="1082.5" y="-194.8" font-family="Arial" font-size="14.00" fill="#c6c5fe">app/components/index.js</text>
</g>
<!-- app/components/login/index.js -->
<g id="node3" class="node">
<title>app/components/login/index.js</title>
<path fill="none" stroke="#c6c5fe" d="M1485.8333,-225C1485.8333,-225 1266.1667,-225 1266.1667,-225 1262.3333,-225 1258.5,-221.1667 1258.5,-217.3333 1258.5,-217.3333 1258.5,-209.6667 1258.5,-209.6667 1258.5,-205.8333 1262.3333,-202 1266.1667,-202 1266.1667,-202 1485.8333,-202 1485.8333,-202 1489.6667,-202 1493.5,-205.8333 1493.5,-209.6667 1493.5,-209.6667 1493.5,-217.3333 1493.5,-217.3333 1493.5,-221.1667 1489.6667,-225 1485.8333,-225"/>
<text text-anchor="middle" x="1376" y="-209.8" font-family="Arial" font-size="14.00" fill="#c6c5fe">app/components/login/index.js</text>
</g>
<!-- app/components/index.js&#45;&gt;app/components/login/index.js -->
<g id="edge1" class="edge">
<title>app/components/index.js&#45;&gt;app/components/login/index.js</title>
<path fill="none" stroke="#757575" d="M1180.6393,-203.5156C1202.3413,-204.6248 1225.6423,-205.8156 1248.3248,-206.9749"/>
<polygon fill="#757575" stroke="#757575" points="1248.1812,-210.472 1258.3469,-207.4871 1248.5386,-203.4811 1248.1812,-210.472"/>
</g>
<!-- app/redux/ducks/session/operations.js -->
<g id="node7" class="node">
<title>app/redux/ducks/session/operations.js</title>
<path fill="none" stroke="#c6c5fe" d="M1820.3333,-286C1820.3333,-286 1545.6667,-286 1545.6667,-286 1541.8333,-286 1538,-282.1667 1538,-278.3333 1538,-278.3333 1538,-270.6667 1538,-270.6667 1538,-266.8333 1541.8333,-263 1545.6667,-263 1545.6667,-263 1820.3333,-263 1820.3333,-263 1824.1667,-263 1828,-266.8333 1828,-270.6667 1828,-270.6667 1828,-278.3333 1828,-278.3333 1828,-282.1667 1824.1667,-286 1820.3333,-286"/>
<text text-anchor="middle" x="1683" y="-270.8" font-family="Arial" font-size="14.00" fill="#c6c5fe">app/redux/ducks/session/operations.js</text>
</g>
<!-- app/components/login/index.js&#45;&gt;app/redux/ducks/session/operations.js -->
<g id="edge10" class="edge">
<title>app/components/login/index.js&#45;&gt;app/redux/ducks/session/operations.js</title>
<path fill="none" stroke="#757575" d="M1434.1053,-225.0453C1485.5724,-235.2717 1560.7445,-250.2082 1614.9958,-260.9878"/>
<polygon fill="#757575" stroke="#757575" points="1614.3814,-264.434 1624.8718,-262.9501 1615.7457,-257.5683 1614.3814,-264.434"/>
</g>
<!-- app/components/login/Login.jsx -->
<g id="node9" class="node">
<title>app/components/login/Login.jsx</title>
<path fill="none" stroke="#c6c5fe" d="M1796.8333,-225C1796.8333,-225 1569.1667,-225 1569.1667,-225 1565.3333,-225 1561.5,-221.1667 1561.5,-217.3333 1561.5,-217.3333 1561.5,-209.6667 1561.5,-209.6667 1561.5,-205.8333 1565.3333,-202 1569.1667,-202 1569.1667,-202 1796.8333,-202 1796.8333,-202 1800.6667,-202 1804.5,-205.8333 1804.5,-209.6667 1804.5,-209.6667 1804.5,-217.3333 1804.5,-217.3333 1804.5,-221.1667 1800.6667,-225 1796.8333,-225"/>
<text text-anchor="middle" x="1683" y="-209.8" font-family="Arial" font-size="14.00" fill="#c6c5fe">app/components/login/Login.jsx</text>
</g>
<!-- app/components/login/index.js&#45;&gt;app/components/login/Login.jsx -->
<g id="edge9" class="edge">
<title>app/components/login/index.js&#45;&gt;app/components/login/Login.jsx</title>
<path fill="none" stroke="#757575" d="M1493.8162,-213.5C1512.5928,-213.5 1532.1235,-213.5 1551.1981,-213.5"/>
<polygon fill="#757575" stroke="#757575" points="1551.4313,-217.0001 1561.4313,-213.5 1551.4312,-210.0001 1551.4313,-217.0001"/>
</g>
<!-- app/components/layouts/App.jsx -->
<g id="node4" class="node">
<title>app/components/layouts/App.jsx</title>
<path fill="none" stroke="#c6c5fe" d="M568.3333,-211C568.3333,-211 334.6667,-211 334.6667,-211 330.8333,-211 327,-207.1667 327,-203.3333 327,-203.3333 327,-195.6667 327,-195.6667 327,-191.8333 330.8333,-188 334.6667,-188 334.6667,-188 568.3333,-188 568.3333,-188 572.1667,-188 576,-191.8333 576,-195.6667 576,-195.6667 576,-203.3333 576,-203.3333 576,-207.1667 572.1667,-211 568.3333,-211"/>
<text text-anchor="middle" x="451.5" y="-195.8" font-family="Arial" font-size="14.00" fill="#c6c5fe">app/components/layouts/App.jsx</text>
</g>
<!-- app/components/layouts/Header.jsx -->
<g id="node5" class="node">
<title>app/components/layouts/Header.jsx</title>
<path fill="none" stroke="#c6c5fe" d="M907.3333,-251C907.3333,-251 650.6667,-251 650.6667,-251 646.8333,-251 643,-247.1667 643,-243.3333 643,-243.3333 643,-235.6667 643,-235.6667 643,-231.8333 646.8333,-228 650.6667,-228 650.6667,-228 907.3333,-228 907.3333,-228 911.1667,-228 915,-231.8333 915,-235.6667 915,-235.6667 915,-243.3333 915,-243.3333 915,-247.1667 911.1667,-251 907.3333,-251"/>
<text text-anchor="middle" x="779" y="-235.8" font-family="Arial" font-size="14.00" fill="#c6c5fe">app/components/layouts/Header.jsx</text>
</g>
<!-- app/components/layouts/App.jsx&#45;&gt;app/components/layouts/Header.jsx -->
<g id="edge2" class="edge">
<title>app/components/layouts/App.jsx&#45;&gt;app/components/layouts/Header.jsx</title>
<path fill="none" stroke="#757575" d="M545.7872,-211.016C586.1131,-215.9413 633.3382,-221.7092 674.7055,-226.7617"/>
<polygon fill="#757575" stroke="#757575" points="674.4608,-230.2578 684.8114,-227.9961 675.3095,-223.3094 674.4608,-230.2578"/>
</g>
<!-- app/routes/index.js -->
<g id="node6" class="node">
<title>app/routes/index.js</title>
<path fill="none" stroke="#c6c5fe" d="M847.8333,-210C847.8333,-210 710.1667,-210 710.1667,-210 706.3333,-210 702.5,-206.1667 702.5,-202.3333 702.5,-202.3333 702.5,-194.6667 702.5,-194.6667 702.5,-190.8333 706.3333,-187 710.1667,-187 710.1667,-187 847.8333,-187 847.8333,-187 851.6667,-187 855.5,-190.8333 855.5,-194.6667 855.5,-194.6667 855.5,-202.3333 855.5,-202.3333 855.5,-206.1667 851.6667,-210 847.8333,-210"/>
<text text-anchor="middle" x="779" y="-194.8" font-family="Arial" font-size="14.00" fill="#c6c5fe">app/routes/index.js</text>
</g>
<!-- app/components/layouts/App.jsx&#45;&gt;app/routes/index.js -->
<g id="edge3" class="edge">
<title>app/components/layouts/App.jsx&#45;&gt;app/routes/index.js</title>
<path fill="none" stroke="#757575" d="M576.248,-199.1191C614.9111,-199.001 656.6542,-198.8736 692.1568,-198.7652"/>
<polygon fill="#757575" stroke="#757575" points="692.4898,-202.2643 702.4791,-198.7337 692.4684,-195.2643 692.4898,-202.2643"/>
</g>
<!-- app/components/layouts/Header.jsx&#45;&gt;app/components/button/Button.jsx -->
<g id="edge4" class="edge">
<title>app/components/layouts/Header.jsx&#45;&gt;app/components/button/Button.jsx</title>
<path fill="none" stroke="#757575" d="M915.2139,-239.5C923.6164,-239.5 932.083,-239.5 940.5093,-239.5"/>
<polygon fill="#757575" stroke="#757575" points="940.7606,-243.0001 950.7606,-239.5 940.7606,-236.0001 940.7606,-243.0001"/>
</g>
<!-- app/components/layouts/Header.jsx&#45;&gt;app/redux/ducks/session/operations.js -->
<g id="edge5" class="edge">
<title>app/components/layouts/Header.jsx&#45;&gt;app/redux/ducks/session/operations.js</title>
<path fill="none" stroke="#757575" d="M864.1507,-251.0272C891.8016,-254.3348 922.657,-257.5662 951,-259.5 1149.6568,-273.0543 1379.2823,-275.637 1527.5905,-275.6003"/>
<polygon fill="#757575" stroke="#757575" points="1527.6857,-279.1003 1537.6834,-275.5937 1527.6811,-272.1003 1527.6857,-279.1003"/>
</g>
<!-- app/routes/index.js&#45;&gt;app/components/index.js -->
<g id="edge38" class="edge">
<title>app/routes/index.js&#45;&gt;app/components/index.js</title>
<path fill="none" stroke="#757575" d="M855.5859,-198.5C891.529,-198.5 934.9988,-198.5 974.233,-198.5"/>
<polygon fill="#757575" stroke="#757575" points="974.3749,-202.0001 984.3748,-198.5 974.3748,-195.0001 974.3749,-202.0001"/>
</g>
<!-- app/components/numi/index.js -->
<g id="node13" class="node">
<title>app/components/numi/index.js</title>
<path fill="none" stroke="#c6c5fe" d="M1192.8333,-169C1192.8333,-169 972.1667,-169 972.1667,-169 968.3333,-169 964.5,-165.1667 964.5,-161.3333 964.5,-161.3333 964.5,-153.6667 964.5,-153.6667 964.5,-149.8333 968.3333,-146 972.1667,-146 972.1667,-146 1192.8333,-146 1192.8333,-146 1196.6667,-146 1200.5,-149.8333 1200.5,-153.6667 1200.5,-153.6667 1200.5,-161.3333 1200.5,-161.3333 1200.5,-165.1667 1196.6667,-169 1192.8333,-169"/>
<text text-anchor="middle" x="1082.5" y="-153.8" font-family="Arial" font-size="14.00" fill="#c6c5fe">app/components/numi/index.js</text>
</g>
<!-- app/routes/index.js&#45;&gt;app/components/numi/index.js -->
<g id="edge39" class="edge">
<title>app/routes/index.js&#45;&gt;app/components/numi/index.js</title>
<path fill="none" stroke="#757575" d="M855.5859,-188.154C895.4971,-182.7623 944.6885,-176.117 987.0565,-170.3935"/>
<polygon fill="#757575" stroke="#757575" points="987.665,-173.8432 997.1064,-169.0359 986.7279,-166.9062 987.665,-173.8432"/>
</g>
<!-- app/redux/ducks/session/actions.js -->
<g id="node28" class="node">
<title>app/redux/ducks/session/actions.js</title>
<path fill="none" stroke="#c6c5fe" d="M2138.8333,-266C2138.8333,-266 1890.1667,-266 1890.1667,-266 1886.3333,-266 1882.5,-262.1667 1882.5,-258.3333 1882.5,-258.3333 1882.5,-250.6667 1882.5,-250.6667 1882.5,-246.8333 1886.3333,-243 1890.1667,-243 1890.1667,-243 2138.8333,-243 2138.8333,-243 2142.6667,-243 2146.5,-246.8333 2146.5,-250.6667 2146.5,-250.6667 2146.5,-258.3333 2146.5,-258.3333 2146.5,-262.1667 2142.6667,-266 2138.8333,-266"/>
<text text-anchor="middle" x="2014.5" y="-250.8" font-family="Arial" font-size="14.00" fill="#c6c5fe">app/redux/ducks/session/actions.js</text>
</g>
<!-- app/redux/ducks/session/operations.js&#45;&gt;app/redux/ducks/session/actions.js -->
<g id="edge33" class="edge">
<title>app/redux/ducks/session/operations.js&#45;&gt;app/redux/ducks/session/actions.js</title>
<path fill="none" stroke="#757575" d="M1828.4007,-265.7277C1842.9594,-264.8494 1857.7307,-263.9582 1872.2562,-263.0818"/>
<polygon fill="#757575" stroke="#757575" points="1872.4964,-266.5738 1882.2674,-262.4778 1872.0748,-259.5865 1872.4964,-266.5738"/>
</g>
<!-- app/redux/utils/index.js -->
<g id="node31" class="node">
<title>app/redux/utils/index.js</title>
<path fill="none" stroke="#c6c5fe" d="M2097.8333,-307C2097.8333,-307 1931.1667,-307 1931.1667,-307 1927.3333,-307 1923.5,-303.1667 1923.5,-299.3333 1923.5,-299.3333 1923.5,-291.6667 1923.5,-291.6667 1923.5,-287.8333 1927.3333,-284 1931.1667,-284 1931.1667,-284 2097.8333,-284 2097.8333,-284 2101.6667,-284 2105.5,-287.8333 2105.5,-291.6667 2105.5,-291.6667 2105.5,-299.3333 2105.5,-299.3333 2105.5,-303.1667 2101.6667,-307 2097.8333,-307"/>
<text text-anchor="middle" x="2014.5" y="-291.8" font-family="Arial" font-size="14.00" fill="#c6c5fe">app/redux/utils/index.js</text>
</g>
<!-- app/redux/ducks/session/operations.js&#45;&gt;app/redux/utils/index.js -->
<g id="edge34" class="edge">
<title>app/redux/ducks/session/operations.js&#45;&gt;app/redux/utils/index.js</title>
<path fill="none" stroke="#757575" d="M1828.4007,-283.7109C1856.9384,-285.5187 1886.2932,-287.3783 1913.0119,-289.0709"/>
<polygon fill="#757575" stroke="#757575" points="1912.9146,-292.5716 1923.1159,-289.711 1913.3572,-285.5857 1912.9146,-292.5716"/>
</g>
<!-- app/components/layouts/index.js -->
<g id="node8" class="node">
<title>app/components/layouts/index.js</title>
<path fill="none" stroke="#c6c5fe" d="M248.3333,-231C248.3333,-231 11.6667,-231 11.6667,-231 7.8333,-231 4,-227.1667 4,-223.3333 4,-223.3333 4,-215.6667 4,-215.6667 4,-211.8333 7.8333,-208 11.6667,-208 11.6667,-208 248.3333,-208 248.3333,-208 252.1667,-208 256,-211.8333 256,-215.6667 256,-215.6667 256,-223.3333 256,-223.3333 256,-227.1667 252.1667,-231 248.3333,-231"/>
<text text-anchor="middle" x="130" y="-215.8" font-family="Arial" font-size="14.00" fill="#c6c5fe">app/components/layouts/index.js</text>
</g>
<!-- app/components/layouts/index.js&#45;&gt;app/components/layouts/App.jsx -->
<g id="edge6" class="edge">
<title>app/components/layouts/index.js&#45;&gt;app/components/layouts/App.jsx</title>
<path fill="none" stroke="#757575" d="M256.1426,-211.6529C276.0076,-210.4171 296.6128,-209.1353 316.6654,-207.8878"/>
<polygon fill="#757575" stroke="#757575" points="317.0121,-211.3731 326.7755,-207.2589 316.5775,-204.3866 317.0121,-211.3731"/>
</g>
<!-- app/components/layouts/index.js&#45;&gt;app/components/layouts/Header.jsx -->
<g id="edge7" class="edge">
<title>app/components/layouts/index.js&#45;&gt;app/components/layouts/Header.jsx</title>
<path fill="none" stroke="#757575" d="M256.2886,-223.3918C364.2108,-226.7176 519.5459,-231.5045 632.827,-234.9954"/>
<polygon fill="#757575" stroke="#757575" points="632.8634,-238.4981 642.9665,-235.3079 633.0791,-231.5014 632.8634,-238.4981"/>
</g>
<!-- app/components/login/styles.sass -->
<g id="node10" class="node">
<title>app/components/login/styles.sass</title>
<path fill="none" stroke="#cfffac" d="M2135.3333,-225C2135.3333,-225 1893.6667,-225 1893.6667,-225 1889.8333,-225 1886,-221.1667 1886,-217.3333 1886,-217.3333 1886,-209.6667 1886,-209.6667 1886,-205.8333 1889.8333,-202 1893.6667,-202 1893.6667,-202 2135.3333,-202 2135.3333,-202 2139.1667,-202 2143,-205.8333 2143,-209.6667 2143,-209.6667 2143,-217.3333 2143,-217.3333 2143,-221.1667 2139.1667,-225 2135.3333,-225"/>
<text text-anchor="middle" x="2014.5" y="-209.8" font-family="Arial" font-size="14.00" fill="#cfffac">app/components/login/styles.sass</text>
</g>
<!-- app/components/login/Login.jsx&#45;&gt;app/components/login/styles.sass -->
<g id="edge8" class="edge">
<title>app/components/login/Login.jsx&#45;&gt;app/components/login/styles.sass</title>
<path fill="none" stroke="#757575" d="M1804.556,-213.5C1827.7581,-213.5 1852.2066,-213.5 1875.8947,-213.5"/>
<polygon fill="#757575" stroke="#757575" points="1875.9943,-217.0001 1885.9943,-213.5 1875.9943,-210.0001 1875.9943,-217.0001"/>
</g>
<!-- app/components/numi/Numi.jsx -->
<g id="node11" class="node">
<title>app/components/numi/Numi.jsx</title>
<path fill="none" stroke="#c6c5fe" d="M1489.8333,-174C1489.8333,-174 1262.1667,-174 1262.1667,-174 1258.3333,-174 1254.5,-170.1667 1254.5,-166.3333 1254.5,-166.3333 1254.5,-158.6667 1254.5,-158.6667 1254.5,-154.8333 1258.3333,-151 1262.1667,-151 1262.1667,-151 1489.8333,-151 1489.8333,-151 1493.6667,-151 1497.5,-154.8333 1497.5,-158.6667 1497.5,-158.6667 1497.5,-166.3333 1497.5,-166.3333 1497.5,-170.1667 1493.6667,-174 1489.8333,-174"/>
<text text-anchor="middle" x="1376" y="-158.8" font-family="Arial" font-size="14.00" fill="#c6c5fe">app/components/numi/Numi.jsx</text>
</g>
<!-- app/components/numi/styles.sass -->
<g id="node12" class="node">
<title>app/components/numi/styles.sass</title>
<path fill="none" stroke="#cfffac" d="M1804.8333,-174C1804.8333,-174 1561.1667,-174 1561.1667,-174 1557.3333,-174 1553.5,-170.1667 1553.5,-166.3333 1553.5,-166.3333 1553.5,-158.6667 1553.5,-158.6667 1553.5,-154.8333 1557.3333,-151 1561.1667,-151 1561.1667,-151 1804.8333,-151 1804.8333,-151 1808.6667,-151 1812.5,-154.8333 1812.5,-158.6667 1812.5,-158.6667 1812.5,-166.3333 1812.5,-166.3333 1812.5,-170.1667 1808.6667,-174 1804.8333,-174"/>
<text text-anchor="middle" x="1683" y="-158.8" font-family="Arial" font-size="14.00" fill="#cfffac">app/components/numi/styles.sass</text>
</g>
<!-- app/components/numi/Numi.jsx&#45;&gt;app/components/numi/styles.sass -->
<g id="edge11" class="edge">
<title>app/components/numi/Numi.jsx&#45;&gt;app/components/numi/styles.sass</title>
<path fill="none" stroke="#757575" d="M1497.7755,-162.5C1512.6015,-162.5 1527.8404,-162.5 1542.9057,-162.5"/>
<polygon fill="#757575" stroke="#757575" points="1543.3006,-166.0001 1553.3006,-162.5 1543.3006,-159.0001 1543.3006,-166.0001"/>
</g>
<!-- app/components/numi/index.js&#45;&gt;app/components/numi/Numi.jsx -->
<g id="edge12" class="edge">
<title>app/components/numi/index.js&#45;&gt;app/components/numi/Numi.jsx</title>
<path fill="none" stroke="#757575" d="M1200.609,-159.5121C1214.9749,-159.7568 1229.7217,-160.008 1244.2696,-160.2559"/>
<polygon fill="#757575" stroke="#757575" points="1244.2441,-163.7558 1254.3023,-160.4268 1244.3634,-156.7569 1244.2441,-163.7558"/>
</g>
<!-- app/redux/ducks/numi/index.js -->
<g id="node14" class="node">
<title>app/redux/ducks/numi/index.js</title>
<path fill="none" stroke="#c6c5fe" d="M1485.8333,-92C1485.8333,-92 1266.1667,-92 1266.1667,-92 1262.3333,-92 1258.5,-88.1667 1258.5,-84.3333 1258.5,-84.3333 1258.5,-76.6667 1258.5,-76.6667 1258.5,-72.8333 1262.3333,-69 1266.1667,-69 1266.1667,-69 1485.8333,-69 1485.8333,-69 1489.6667,-69 1493.5,-72.8333 1493.5,-76.6667 1493.5,-76.6667 1493.5,-84.3333 1493.5,-84.3333 1493.5,-88.1667 1489.6667,-92 1485.8333,-92"/>
<text text-anchor="middle" x="1376" y="-76.8" font-family="Arial" font-size="14.00" fill="#c6c5fe">app/redux/ducks/numi/index.js</text>
</g>
<!-- app/components/numi/index.js&#45;&gt;app/redux/ducks/numi/index.js -->
<g id="edge13" class="edge">
<title>app/components/numi/index.js&#45;&gt;app/redux/ducks/numi/index.js</title>
<path fill="none" stroke="#757575" d="M1136.9918,-145.9669C1161.0809,-140.0129 1189.449,-131.8119 1214,-121.5 1231.078,-114.3269 1232.5541,-106.7252 1250,-100.5 1256.3071,-98.2495 1262.8819,-96.2515 1269.5732,-94.478"/>
<polygon fill="#757575" stroke="#757575" points="1270.5755,-97.8356 1279.4424,-92.0367 1268.8946,-91.0404 1270.5755,-97.8356"/>
</g>
<!-- app/redux/ducks/numi/operations.js -->
<g id="node19" class="node">
<title>app/redux/ducks/numi/operations.js</title>
<path fill="none" stroke="#c6c5fe" d="M1811.3333,-92C1811.3333,-92 1554.6667,-92 1554.6667,-92 1550.8333,-92 1547,-88.1667 1547,-84.3333 1547,-84.3333 1547,-76.6667 1547,-76.6667 1547,-72.8333 1550.8333,-69 1554.6667,-69 1554.6667,-69 1811.3333,-69 1811.3333,-69 1815.1667,-69 1819,-72.8333 1819,-76.6667 1819,-76.6667 1819,-84.3333 1819,-84.3333 1819,-88.1667 1815.1667,-92 1811.3333,-92"/>
<text text-anchor="middle" x="1683" y="-76.8" font-family="Arial" font-size="14.00" fill="#c6c5fe">app/redux/ducks/numi/operations.js</text>
</g>
<!-- app/redux/ducks/numi/index.js&#45;&gt;app/redux/ducks/numi/operations.js -->
<g id="edge17" class="edge">
<title>app/redux/ducks/numi/index.js&#45;&gt;app/redux/ducks/numi/operations.js</title>
<path fill="none" stroke="#757575" d="M1493.8162,-80.5C1507.7631,-80.5 1522.126,-80.5 1536.409,-80.5"/>
<polygon fill="#757575" stroke="#757575" points="1536.7881,-84.0001 1546.7881,-80.5 1536.788,-77.0001 1536.7881,-84.0001"/>
</g>
<!-- app/redux/ducks/numi/reducers.js -->
<g id="node20" class="node">
<title>app/redux/ducks/numi/reducers.js</title>
<path fill="none" stroke="#c6c5fe" d="M2485.8333,-23C2485.8333,-23 2242.1667,-23 2242.1667,-23 2238.3333,-23 2234.5,-19.1667 2234.5,-15.3333 2234.5,-15.3333 2234.5,-7.6667 2234.5,-7.6667 2234.5,-3.8333 2238.3333,0 2242.1667,0 2242.1667,0 2485.8333,0 2485.8333,0 2489.6667,0 2493.5,-3.8333 2493.5,-7.6667 2493.5,-7.6667 2493.5,-15.3333 2493.5,-15.3333 2493.5,-19.1667 2489.6667,-23 2485.8333,-23"/>
<text text-anchor="middle" x="2364" y="-7.8" font-family="Arial" font-size="14.00" fill="#c6c5fe">app/redux/ducks/numi/reducers.js</text>
</g>
<!-- app/redux/ducks/numi/index.js&#45;&gt;app/redux/ducks/numi/reducers.js -->
<g id="edge18" class="edge">
<title>app/redux/ducks/numi/index.js&#45;&gt;app/redux/ducks/numi/reducers.js</title>
<path fill="none" stroke="#757575" d="M1456.214,-68.9589C1482.258,-65.5179 1511.3165,-62.0016 1538,-59.5 1778.5953,-36.9438 2059.6749,-23.3048 2224.1342,-16.6038"/>
<polygon fill="#757575" stroke="#757575" points="2224.4591,-20.0936 2234.3094,-16.192 2224.176,-13.0993 2224.4591,-20.0936"/>
</g>
<!-- app/redux/ducks/index.js -->
<g id="node15" class="node">
<title>app/redux/ducks/index.js</title>
<path fill="none" stroke="#c6c5fe" d="M1171.8333,-113C1171.8333,-113 993.1667,-113 993.1667,-113 989.3333,-113 985.5,-109.1667 985.5,-105.3333 985.5,-105.3333 985.5,-97.6667 985.5,-97.6667 985.5,-93.8333 989.3333,-90 993.1667,-90 993.1667,-90 1171.8333,-90 1171.8333,-90 1175.6667,-90 1179.5,-93.8333 1179.5,-97.6667 1179.5,-97.6667 1179.5,-105.3333 1179.5,-105.3333 1179.5,-109.1667 1175.6667,-113 1171.8333,-113"/>
<text text-anchor="middle" x="1082.5" y="-97.8" font-family="Arial" font-size="14.00" fill="#c6c5fe">app/redux/ducks/index.js</text>
</g>
<!-- app/redux/ducks/index.js&#45;&gt;app/redux/ducks/numi/index.js -->
<g id="edge14" class="edge">
<title>app/redux/ducks/index.js&#45;&gt;app/redux/ducks/numi/index.js</title>
<path fill="none" stroke="#757575" d="M1179.8236,-94.5365C1201.6996,-92.9712 1225.2348,-91.2873 1248.1451,-89.648"/>
<polygon fill="#757575" stroke="#757575" points="1248.543,-93.1286 1258.2677,-88.9238 1248.0434,-86.1465 1248.543,-93.1286"/>
</g>
<!-- app/redux/ducks/session/index.js -->
<g id="node16" class="node">
<title>app/redux/ducks/session/index.js</title>
<path fill="none" stroke="#c6c5fe" d="M1494.3333,-133C1494.3333,-133 1257.6667,-133 1257.6667,-133 1253.8333,-133 1250,-129.1667 1250,-125.3333 1250,-125.3333 1250,-117.6667 1250,-117.6667 1250,-113.8333 1253.8333,-110 1257.6667,-110 1257.6667,-110 1494.3333,-110 1494.3333,-110 1498.1667,-110 1502,-113.8333 1502,-117.6667 1502,-117.6667 1502,-125.3333 1502,-125.3333 1502,-129.1667 1498.1667,-133 1494.3333,-133"/>
<text text-anchor="middle" x="1376" y="-117.8" font-family="Arial" font-size="14.00" fill="#c6c5fe">app/redux/ducks/session/index.js</text>
</g>
<!-- app/redux/ducks/index.js&#45;&gt;app/redux/ducks/session/index.js -->
<g id="edge15" class="edge">
<title>app/redux/ducks/index.js&#45;&gt;app/redux/ducks/session/index.js</title>
<path fill="none" stroke="#757575" d="M1179.8236,-108.1319C1199.0232,-109.4403 1219.5009,-110.8357 1239.7125,-112.2129"/>
<polygon fill="#757575" stroke="#757575" points="1239.7117,-115.7209 1249.9266,-112.909 1240.1877,-108.7371 1239.7117,-115.7209"/>
</g>
<!-- app/redux/ducks/session/reducers.js -->
<g id="node30" class="node">
<title>app/redux/ducks/session/reducers.js</title>
<path fill="none" stroke="#c6c5fe" d="M2144.8333,-184C2144.8333,-184 1884.1667,-184 1884.1667,-184 1880.3333,-184 1876.5,-180.1667 1876.5,-176.3333 1876.5,-176.3333 1876.5,-168.6667 1876.5,-168.6667 1876.5,-164.8333 1880.3333,-161 1884.1667,-161 1884.1667,-161 2144.8333,-161 2144.8333,-161 2148.6667,-161 2152.5,-164.8333 2152.5,-168.6667 2152.5,-168.6667 2152.5,-176.3333 2152.5,-176.3333 2152.5,-180.1667 2148.6667,-184 2144.8333,-184"/>
<text text-anchor="middle" x="2014.5" y="-168.8" font-family="Arial" font-size="14.00" fill="#c6c5fe">app/redux/ducks/session/reducers.js</text>
</g>
<!-- app/redux/ducks/session/index.js&#45;&gt;app/redux/ducks/session/reducers.js -->
<g id="edge32" class="edge">
<title>app/redux/ducks/session/index.js&#45;&gt;app/redux/ducks/session/reducers.js</title>
<path fill="none" stroke="#757575" d="M1502.4407,-119.4635C1593.5021,-119.8479 1719.0061,-124.1808 1828,-141.5 1844.4001,-144.106 1847.7412,-148.123 1864,-151.5 1878.0614,-154.4206 1892.9479,-157.0487 1907.6729,-159.3766"/>
<polygon fill="#757575" stroke="#757575" points="1907.413,-162.8778 1917.8292,-160.9402 1908.4782,-155.9593 1907.413,-162.8778"/>
</g>
<!-- app/redux/ducks/numi/actions.js -->
<g id="node17" class="node">
<title>app/redux/ducks/numi/actions.js</title>
<path fill="none" stroke="#c6c5fe" d="M2875.8333,-63C2875.8333,-63 2644.1667,-63 2644.1667,-63 2640.3333,-63 2636.5,-59.1667 2636.5,-55.3333 2636.5,-55.3333 2636.5,-47.6667 2636.5,-47.6667 2636.5,-43.8333 2640.3333,-40 2644.1667,-40 2644.1667,-40 2875.8333,-40 2875.8333,-40 2879.6667,-40 2883.5,-43.8333 2883.5,-47.6667 2883.5,-47.6667 2883.5,-55.3333 2883.5,-55.3333 2883.5,-59.1667 2879.6667,-63 2875.8333,-63"/>
<text text-anchor="middle" x="2760" y="-47.8" font-family="Arial" font-size="14.00" fill="#c6c5fe">app/redux/ducks/numi/actions.js</text>
</g>
<!-- app/redux/ducks/numi/types.js -->
<g id="node18" class="node">
<title>app/redux/ducks/numi/types.js</title>
<path fill="none" stroke="#cfffac" d="M3220.3333,-43C3220.3333,-43 3000.6667,-43 3000.6667,-43 2996.8333,-43 2993,-39.1667 2993,-35.3333 2993,-35.3333 2993,-27.6667 2993,-27.6667 2993,-23.8333 2996.8333,-20 3000.6667,-20 3000.6667,-20 3220.3333,-20 3220.3333,-20 3224.1667,-20 3228,-23.8333 3228,-27.6667 3228,-27.6667 3228,-35.3333 3228,-35.3333 3228,-39.1667 3224.1667,-43 3220.3333,-43"/>
<text text-anchor="middle" x="3110.5" y="-27.8" font-family="Arial" font-size="14.00" fill="#cfffac">app/redux/ducks/numi/types.js</text>
</g>
<!-- app/redux/ducks/numi/actions.js&#45;&gt;app/redux/ducks/numi/types.js -->
<g id="edge16" class="edge">
<title>app/redux/ducks/numi/actions.js&#45;&gt;app/redux/ducks/numi/types.js</title>
<path fill="none" stroke="#757575" d="M2883.5732,-44.4487C2915.5852,-42.6221 2950.1237,-40.6513 2982.3641,-38.8116"/>
<polygon fill="#757575" stroke="#757575" points="2982.9606,-42.2834 2992.7449,-38.2193 2982.5617,-35.2947 2982.9606,-42.2834"/>
</g>
<!-- app/redux/ducks/numi/operations.js&#45;&gt;app/redux/ducks/numi/actions.js -->
<g id="edge28" class="edge">
<title>app/redux/ducks/numi/operations.js&#45;&gt;app/redux/ducks/numi/actions.js</title>
<path fill="none" stroke="#757575" d="M1819.1298,-76.8345C2026.6554,-71.2465 2419.7398,-60.6621 2625.9922,-55.1084"/>
<polygon fill="#757575" stroke="#757575" points="2626.3743,-58.5995 2636.2764,-54.8315 2626.1858,-51.602 2626.3743,-58.5995"/>
</g>
<!-- app/redux/ducks/numi/modules/index.js -->
<g id="node25" class="node">
<title>app/redux/ducks/numi/modules/index.js</title>
<path fill="none" stroke="#c6c5fe" d="M2157.3333,-143C2157.3333,-143 1871.6667,-143 1871.6667,-143 1867.8333,-143 1864,-139.1667 1864,-135.3333 1864,-135.3333 1864,-127.6667 1864,-127.6667 1864,-123.8333 1867.8333,-120 1871.6667,-120 1871.6667,-120 2157.3333,-120 2157.3333,-120 2161.1667,-120 2165,-123.8333 2165,-127.6667 2165,-127.6667 2165,-135.3333 2165,-135.3333 2165,-139.1667 2161.1667,-143 2157.3333,-143"/>
<text text-anchor="middle" x="2014.5" y="-127.8" font-family="Arial" font-size="14.00" fill="#c6c5fe">app/redux/ducks/numi/modules/index.js</text>
</g>
<!-- app/redux/ducks/numi/operations.js&#45;&gt;app/redux/ducks/numi/modules/index.js -->
<g id="edge29" class="edge">
<title>app/redux/ducks/numi/operations.js&#45;&gt;app/redux/ducks/numi/modules/index.js</title>
<path fill="none" stroke="#757575" d="M1757.8084,-92.009C1808.8476,-99.8612 1876.5496,-110.2769 1929.6093,-118.4399"/>
<polygon fill="#757575" stroke="#757575" points="1929.2615,-121.9275 1939.6774,-119.9888 1930.326,-115.0089 1929.2615,-121.9275"/>
</g>
<!-- app/redux/ducks/numi/reducers.js&#45;&gt;app/redux/ducks/numi/types.js -->
<g id="edge30" class="edge">
<title>app/redux/ducks/numi/reducers.js&#45;&gt;app/redux/ducks/numi/types.js</title>
<path fill="none" stroke="#757575" d="M2493.604,-14.9723C2630.8717,-18.6499 2846.2192,-24.4195 2982.7708,-28.0779"/>
<polygon fill="#757575" stroke="#757575" points="2982.7817,-31.5794 2992.8719,-28.3485 2982.9693,-24.5819 2982.7817,-31.5794"/>
</g>
<!-- app/redux/ducks/numi/modules/calculate.js -->
<g id="node21" class="node">
<title>app/redux/ducks/numi/modules/calculate.js</title>
<path fill="none" stroke="#c6c5fe" d="M2519.3333,-104C2519.3333,-104 2208.6667,-104 2208.6667,-104 2204.8333,-104 2201,-100.1667 2201,-96.3333 2201,-96.3333 2201,-88.6667 2201,-88.6667 2201,-84.8333 2204.8333,-81 2208.6667,-81 2208.6667,-81 2519.3333,-81 2519.3333,-81 2523.1667,-81 2527,-84.8333 2527,-88.6667 2527,-88.6667 2527,-96.3333 2527,-96.3333 2527,-100.1667 2523.1667,-104 2519.3333,-104"/>
<text text-anchor="middle" x="2364" y="-88.8" font-family="Arial" font-size="14.00" fill="#c6c5fe">app/redux/ducks/numi/modules/calculate.js</text>
</g>
<!-- app/redux/ducks/numi/modules/calculate.js&#45;&gt;app/redux/ducks/numi/actions.js -->
<g id="edge19" class="edge">
<title>app/redux/ducks/numi/modules/calculate.js&#45;&gt;app/redux/ducks/numi/actions.js</title>
<path fill="none" stroke="#757575" d="M2472.4362,-80.9782C2501.8216,-77.8774 2533.6276,-74.5408 2563,-71.5 2586.4873,-69.0685 2611.553,-66.502 2635.6591,-64.0479"/>
<polygon fill="#757575" stroke="#757575" points="2636.3298,-67.4979 2645.9242,-63.0038 2635.6213,-60.5338 2636.3298,-67.4979"/>
</g>
<!-- app/redux/ducks/numi/modules/error.js -->
<g id="node22" class="node">
<title>app/redux/ducks/numi/modules/error.js</title>
<path fill="none" stroke="#cfffac" d="M2900.3333,-186C2900.3333,-186 2619.6667,-186 2619.6667,-186 2615.8333,-186 2612,-182.1667 2612,-178.3333 2612,-178.3333 2612,-170.6667 2612,-170.6667 2612,-166.8333 2615.8333,-163 2619.6667,-163 2619.6667,-163 2900.3333,-163 2900.3333,-163 2904.1667,-163 2908,-166.8333 2908,-170.6667 2908,-170.6667 2908,-178.3333 2908,-178.3333 2908,-182.1667 2904.1667,-186 2900.3333,-186"/>
<text text-anchor="middle" x="2760" y="-170.8" font-family="Arial" font-size="14.00" fill="#cfffac">app/redux/ducks/numi/modules/error.js</text>
</g>
<!-- app/redux/ducks/numi/modules/calculate.js&#45;&gt;app/redux/ducks/numi/modules/error.js -->
<g id="edge20" class="edge">
<title>app/redux/ducks/numi/modules/calculate.js&#45;&gt;app/redux/ducks/numi/modules/error.js</title>
<path fill="none" stroke="#757575" d="M2395.2257,-104.1125C2434.0092,-118.0577 2502.4628,-141.1138 2563,-153.5 2578.2782,-156.626 2594.324,-159.3034 2610.3862,-161.5931"/>
<polygon fill="#757575" stroke="#757575" points="2609.9988,-165.0727 2620.3827,-162.9692 2610.9534,-158.1381 2609.9988,-165.0727"/>
</g>
<!-- app/redux/ducks/numi/modules/logic.js -->
<g id="node23" class="node">
<title>app/redux/ducks/numi/modules/logic.js</title>
<path fill="none" stroke="#cfffac" d="M2899.8333,-145C2899.8333,-145 2620.1667,-145 2620.1667,-145 2616.3333,-145 2612.5,-141.1667 2612.5,-137.3333 2612.5,-137.3333 2612.5,-129.6667 2612.5,-129.6667 2612.5,-125.8333 2616.3333,-122 2620.1667,-122 2620.1667,-122 2899.8333,-122 2899.8333,-122 2903.6667,-122 2907.5,-125.8333 2907.5,-129.6667 2907.5,-129.6667 2907.5,-137.3333 2907.5,-137.3333 2907.5,-141.1667 2903.6667,-145 2899.8333,-145"/>
<text text-anchor="middle" x="2760" y="-129.8" font-family="Arial" font-size="14.00" fill="#cfffac">app/redux/ducks/numi/modules/logic.js</text>
</g>
<!-- app/redux/ducks/numi/modules/calculate.js&#45;&gt;app/redux/ducks/numi/modules/logic.js -->
<g id="edge21" class="edge">
<title>app/redux/ducks/numi/modules/calculate.js&#45;&gt;app/redux/ducks/numi/modules/logic.js</title>
<path fill="none" stroke="#757575" d="M2475.0982,-104.0026C2526.0377,-109.2766 2586.5506,-115.5419 2638.6776,-120.9388"/>
<polygon fill="#757575" stroke="#757575" points="2638.3395,-124.4225 2648.6469,-121.971 2639.0605,-117.4597 2638.3395,-124.4225"/>
</g>
<!-- app/redux/ducks/numi/modules/replaceOperations.js -->
<g id="node24" class="node">
<title>app/redux/ducks/numi/modules/replaceOperations.js</title>
<path fill="none" stroke="#cfffac" d="M2949.3333,-104C2949.3333,-104 2570.6667,-104 2570.6667,-104 2566.8333,-104 2563,-100.1667 2563,-96.3333 2563,-96.3333 2563,-88.6667 2563,-88.6667 2563,-84.8333 2566.8333,-81 2570.6667,-81 2570.6667,-81 2949.3333,-81 2949.3333,-81 2953.1667,-81 2957,-84.8333 2957,-88.6667 2957,-88.6667 2957,-96.3333 2957,-96.3333 2957,-100.1667 2953.1667,-104 2949.3333,-104"/>
<text text-anchor="middle" x="2760" y="-88.8" font-family="Arial" font-size="14.00" fill="#cfffac">app/redux/ducks/numi/modules/replaceOperations.js</text>
</g>
<!-- app/redux/ducks/numi/modules/calculate.js&#45;&gt;app/redux/ducks/numi/modules/replaceOperations.js -->
<g id="edge22" class="edge">
<title>app/redux/ducks/numi/modules/calculate.js&#45;&gt;app/redux/ducks/numi/modules/replaceOperations.js</title>
<path fill="none" stroke="#757575" d="M2527.0686,-92.5C2535.5728,-92.5 2544.1659,-92.5 2552.7822,-92.5"/>
<polygon fill="#757575" stroke="#757575" points="2552.9039,-96.0001 2562.9038,-92.5 2552.9038,-89.0001 2552.9039,-96.0001"/>
</g>
<!-- app/redux/ducks/numi/modules/index.js&#45;&gt;app/redux/ducks/numi/modules/calculate.js -->
<g id="edge23" class="edge">
<title>app/redux/ducks/numi/modules/index.js&#45;&gt;app/redux/ducks/numi/modules/calculate.js</title>
<path fill="none" stroke="#757575" d="M2117.9429,-119.957C2159.6849,-115.2991 2207.9788,-109.9101 2250.6694,-105.1463"/>
<polygon fill="#757575" stroke="#757575" points="2251.2723,-108.6009 2260.8225,-104.0134 2250.496,-101.644 2251.2723,-108.6009"/>
</g>
<!-- app/redux/ducks/numi/modules/index.js&#45;&gt;app/redux/ducks/numi/modules/error.js -->
<g id="edge24" class="edge">
<title>app/redux/ducks/numi/modules/index.js&#45;&gt;app/redux/ducks/numi/modules/error.js</title>
<path fill="none" stroke="#757575" d="M2146.0248,-143.0956C2152.5892,-145.4855 2158.9571,-148.2676 2165,-151.5 2186.3829,-162.9378 2178.9088,-182.4987 2201,-192.5 2332.9922,-252.2567 2382.2188,-198.0841 2527,-192.5 2558.3696,-191.2901 2592.062,-189.1672 2623.8073,-186.7937"/>
<polygon fill="#757575" stroke="#757575" points="2624.3347,-190.2638 2634.0404,-186.0152 2623.8036,-183.284 2624.3347,-190.2638"/>
</g>
<!-- app/redux/ducks/numi/modules/index.js&#45;&gt;app/redux/ducks/numi/modules/logic.js -->
<g id="edge25" class="edge">
<title>app/redux/ducks/numi/modules/index.js&#45;&gt;app/redux/ducks/numi/modules/logic.js</title>
<path fill="none" stroke="#757575" d="M2165.363,-131.9047C2292.2256,-132.2451 2473.0017,-132.7301 2601.8691,-133.0758"/>
<polygon fill="#757575" stroke="#757575" points="2602.2131,-136.5766 2612.2225,-133.1035 2602.2319,-129.5766 2602.2131,-136.5766"/>
</g>
<!-- app/redux/ducks/numi/modules/variable.js -->
<g id="node26" class="node">
<title>app/redux/ducks/numi/modules/variable.js</title>
<path fill="none" stroke="#c6c5fe" d="M2516.3333,-184C2516.3333,-184 2211.6667,-184 2211.6667,-184 2207.8333,-184 2204,-180.1667 2204,-176.3333 2204,-176.3333 2204,-168.6667 2204,-168.6667 2204,-164.8333 2207.8333,-161 2211.6667,-161 2211.6667,-161 2516.3333,-161 2516.3333,-161 2520.1667,-161 2524,-164.8333 2524,-168.6667 2524,-168.6667 2524,-176.3333 2524,-176.3333 2524,-180.1667 2520.1667,-184 2516.3333,-184"/>
<text text-anchor="middle" x="2364" y="-168.8" font-family="Arial" font-size="14.00" fill="#c6c5fe">app/redux/ducks/numi/modules/variable.js</text>
</g>
<!-- app/redux/ducks/numi/modules/index.js&#45;&gt;app/redux/ducks/numi/modules/variable.js -->
<g id="edge26" class="edge">
<title>app/redux/ducks/numi/modules/index.js&#45;&gt;app/redux/ducks/numi/modules/variable.js</title>
<path fill="none" stroke="#757575" d="M2112.7853,-143.0299C2157.3649,-148.2595 2210.2143,-154.4593 2255.9102,-159.8199"/>
<polygon fill="#757575" stroke="#757575" points="2255.5077,-163.2966 2265.8474,-160.9857 2256.3234,-156.3443 2255.5077,-163.2966"/>
</g>
<!-- app/redux/ducks/numi/modules/variable.js&#45;&gt;app/redux/ducks/numi/modules/error.js -->
<g id="edge27" class="edge">
<title>app/redux/ducks/numi/modules/variable.js&#45;&gt;app/redux/ducks/numi/modules/error.js</title>
<path fill="none" stroke="#757575" d="M2524.2122,-173.3092C2549.7794,-173.4383 2576.2196,-173.5718 2601.7411,-173.7007"/>
<polygon fill="#757575" stroke="#757575" points="2601.8342,-177.2011 2611.8518,-173.7518 2601.8696,-170.2012 2601.8342,-177.2011"/>
</g>
<!-- app/redux/ducks/numi/selectors.js -->
<g id="node27" class="node">
<title>app/redux/ducks/numi/selectors.js</title>
<path fill="none" stroke="#cfffac" d="M252.3333,-272C252.3333,-272 7.6667,-272 7.6667,-272 3.8333,-272 0,-268.1667 0,-264.3333 0,-264.3333 0,-256.6667 0,-256.6667 0,-252.8333 3.8333,-249 7.6667,-249 7.6667,-249 252.3333,-249 252.3333,-249 256.1667,-249 260,-252.8333 260,-256.6667 260,-256.6667 260,-264.3333 260,-264.3333 260,-268.1667 256.1667,-272 252.3333,-272"/>
<text text-anchor="middle" x="130" y="-256.8" font-family="Arial" font-size="14.00" fill="#cfffac">app/redux/ducks/numi/selectors.js</text>
</g>
<!-- app/redux/ducks/session/types.js -->
<g id="node29" class="node">
<title>app/redux/ducks/session/types.js</title>
<path fill="none" stroke="#cfffac" d="M2482.3333,-265C2482.3333,-265 2245.6667,-265 2245.6667,-265 2241.8333,-265 2238,-261.1667 2238,-257.3333 2238,-257.3333 2238,-249.6667 2238,-249.6667 2238,-245.8333 2241.8333,-242 2245.6667,-242 2245.6667,-242 2482.3333,-242 2482.3333,-242 2486.1667,-242 2490,-245.8333 2490,-249.6667 2490,-249.6667 2490,-257.3333 2490,-257.3333 2490,-261.1667 2486.1667,-265 2482.3333,-265"/>
<text text-anchor="middle" x="2364" y="-249.8" font-family="Arial" font-size="14.00" fill="#cfffac">app/redux/ducks/session/types.js</text>
</g>
<!-- app/redux/ducks/session/actions.js&#45;&gt;app/redux/ducks/session/types.js -->
<g id="edge31" class="edge">
<title>app/redux/ducks/session/actions.js&#45;&gt;app/redux/ducks/session/types.js</title>
<path fill="none" stroke="#757575" d="M2146.631,-254.1219C2173.1134,-254.0462 2200.9866,-253.9664 2227.6102,-253.8902"/>
<polygon fill="#757575" stroke="#757575" points="2227.7573,-257.3899 2237.7472,-253.8612 2227.7372,-250.39 2227.7573,-257.3899"/>
</g>
<!-- app/redux/ducks/session/reducers.js&#45;&gt;app/redux/ducks/session/types.js -->
<g id="edge35" class="edge">
<title>app/redux/ducks/session/reducers.js&#45;&gt;app/redux/ducks/session/types.js</title>
<path fill="none" stroke="#757575" d="M2143.3651,-184.0354C2150.8299,-186.4145 2158.0988,-189.2133 2165,-192.5 2184.8695,-201.963 2181.2846,-216.7199 2201,-226.5 2211.2353,-231.5774 2222.2317,-235.7284 2233.5045,-239.1184"/>
<polygon fill="#757575" stroke="#757575" points="2232.8967,-242.5827 2243.4699,-241.9058 2234.7823,-235.8414 2232.8967,-242.5827"/>
</g>
<!-- app/redux/utils/fetch.js -->
<g id="node33" class="node">
<title>app/redux/utils/fetch.js</title>
<path fill="none" stroke="#cfffac" d="M2445.8333,-307C2445.8333,-307 2282.1667,-307 2282.1667,-307 2278.3333,-307 2274.5,-303.1667 2274.5,-299.3333 2274.5,-299.3333 2274.5,-291.6667 2274.5,-291.6667 2274.5,-287.8333 2278.3333,-284 2282.1667,-284 2282.1667,-284 2445.8333,-284 2445.8333,-284 2449.6667,-284 2453.5,-287.8333 2453.5,-291.6667 2453.5,-291.6667 2453.5,-299.3333 2453.5,-299.3333 2453.5,-303.1667 2449.6667,-307 2445.8333,-307"/>
<text text-anchor="middle" x="2364" y="-291.8" font-family="Arial" font-size="14.00" fill="#cfffac">app/redux/utils/fetch.js</text>
</g>
<!-- app/redux/utils/index.js&#45;&gt;app/redux/utils/fetch.js -->
<g id="edge37" class="edge">
<title>app/redux/utils/index.js&#45;&gt;app/redux/utils/fetch.js</title>
<path fill="none" stroke="#757575" d="M2105.8705,-295.5C2154.4994,-295.5 2214.3799,-295.5 2264.2206,-295.5"/>
<polygon fill="#757575" stroke="#757575" points="2264.3719,-299.0001 2274.3718,-295.5 2264.3718,-292.0001 2264.3719,-299.0001"/>
</g>
<!-- app/redux/store.js -->
<g id="node32" class="node">
<title>app/redux/store.js</title>
<path fill="none" stroke="#c6c5fe" d="M844.3333,-113C844.3333,-113 713.6667,-113 713.6667,-113 709.8333,-113 706,-109.1667 706,-105.3333 706,-105.3333 706,-97.6667 706,-97.6667 706,-93.8333 709.8333,-90 713.6667,-90 713.6667,-90 844.3333,-90 844.3333,-90 848.1667,-90 852,-93.8333 852,-97.6667 852,-97.6667 852,-105.3333 852,-105.3333 852,-109.1667 848.1667,-113 844.3333,-113"/>
<text text-anchor="middle" x="779" y="-97.8" font-family="Arial" font-size="14.00" fill="#c6c5fe">app/redux/store.js</text>
</g>
<!-- app/redux/store.js&#45;&gt;app/redux/ducks/index.js -->
<g id="edge36" class="edge">
<title>app/redux/store.js&#45;&gt;app/redux/ducks/index.js</title>
<path fill="none" stroke="#757575" d="M852.082,-101.5C888.9491,-101.5 934.3787,-101.5 975.1275,-101.5"/>
<polygon fill="#757575" stroke="#757575" points="975.3784,-105.0001 985.3784,-101.5 975.3784,-98.0001 975.3784,-105.0001"/>
</g>
<!-- app/utils/enhancers/index.js -->
<g id="node34" class="node">
<title>app/utils/enhancers/index.js</title>
<path fill="none" stroke="#c6c5fe" d="M230.3333,-313C230.3333,-313 29.6667,-313 29.6667,-313 25.8333,-313 22,-309.1667 22,-305.3333 22,-305.3333 22,-297.6667 22,-297.6667 22,-293.8333 25.8333,-290 29.6667,-290 29.6667,-290 230.3333,-290 230.3333,-290 234.1667,-290 238,-293.8333 238,-297.6667 238,-297.6667 238,-305.3333 238,-305.3333 238,-309.1667 234.1667,-313 230.3333,-313"/>
<text text-anchor="middle" x="130" y="-297.8" font-family="Arial" font-size="14.00" fill="#c6c5fe">app/utils/enhancers/index.js</text>
</g>
<!-- app/utils/enhancers/withAuthentication.js -->
<g id="node35" class="node">
<title>app/utils/enhancers/withAuthentication.js</title>
<path fill="none" stroke="#cfffac" d="M599.3333,-313C599.3333,-313 303.6667,-313 303.6667,-313 299.8333,-313 296,-309.1667 296,-305.3333 296,-305.3333 296,-297.6667 296,-297.6667 296,-293.8333 299.8333,-290 303.6667,-290 303.6667,-290 599.3333,-290 599.3333,-290 603.1667,-290 607,-293.8333 607,-297.6667 607,-297.6667 607,-305.3333 607,-305.3333 607,-309.1667 603.1667,-313 599.3333,-313"/>
<text text-anchor="middle" x="451.5" y="-297.8" font-family="Arial" font-size="14.00" fill="#cfffac">app/utils/enhancers/withAuthentication.js</text>
</g>
<!-- app/utils/enhancers/index.js&#45;&gt;app/utils/enhancers/withAuthentication.js -->
<g id="edge40" class="edge">
<title>app/utils/enhancers/index.js&#45;&gt;app/utils/enhancers/withAuthentication.js</title>
<path fill="none" stroke="#757575" d="M238.397,-301.5C253.7197,-301.5 269.7549,-301.5 285.8556,-301.5"/>
<polygon fill="#757575" stroke="#757575" points="285.8832,-305.0001 295.8832,-301.5 285.8832,-298.0001 285.8832,-305.0001"/>
</g>
<!-- serviceWorker.js -->
<g id="node36" class="node">
<title>serviceWorker.js</title>
<path fill="none" stroke="#cfffac" d="M188.8333,-354C188.8333,-354 71.1667,-354 71.1667,-354 67.3333,-354 63.5,-350.1667 63.5,-346.3333 63.5,-346.3333 63.5,-338.6667 63.5,-338.6667 63.5,-334.8333 67.3333,-331 71.1667,-331 71.1667,-331 188.8333,-331 188.8333,-331 192.6667,-331 196.5,-334.8333 196.5,-338.6667 196.5,-338.6667 196.5,-346.3333 196.5,-346.3333 196.5,-350.1667 192.6667,-354 188.8333,-354"/>
<text text-anchor="middle" x="130" y="-338.8" font-family="Arial" font-size="14.00" fill="#cfffac">serviceWorker.js</text>
</g>
</g>
</svg>
